<?xml version="1.0" encoding="UTF-8"?><svg xmlns="http://www.w3.org/2000/svg" xmlns:xlink="http://www.w3.org/1999/xlink" height="59.0" preserveAspectRatio="xMidYMid meet" version="1.0" viewBox="2.5 2.5 59.0 59.0" width="59.0" zoomAndPan="magnify"><g id="change1_1"><path d="M60,45.5c-0.8,0-1.5,0.7-1.5,1.5v8.7c0,1.5-1.2,2.8-2.8,2.8H8.3c-1.5,0-2.8-1.2-2.8-2.8V47c0-0.8-0.7-1.5-1.5-1.5 S2.5,46.2,2.5,47v8.7c0,3.2,2.6,5.8,5.8,5.8h47.4c3.2,0,5.8-2.6,5.8-5.8V47C61.5,46.2,60.8,45.5,60,45.5z"/><path d="M28.3,45.9c1,0.9,2.4,1.3,3.7,1.3s2.7-0.5,3.7-1.3L56,29.2c0.3-0.3,0.5-0.6,0.5-1s-0.1-0.8-0.3-1.1c-0.3-0.3-0.6-0.5-1-0.5 c-0.4,0-0.8,0.1-1.1,0.3L33.8,43.6c-0.1,0.1-0.2,0.2-0.3,0.2V4c0-0.8-0.7-1.5-1.5-1.5S30.5,3.2,30.5,4v39.8 c-0.1-0.1-0.2-0.1-0.3-0.2L10,26.8c-0.3-0.3-0.7-0.4-1.1-0.3c-0.4,0-0.8,0.2-1,0.5c-0.3,0.3-0.4,0.7-0.3,1.1s0.2,0.8,0.5,1 L28.3,45.9z"/></g></svg>